<?xml version="1.0" encoding="utf-8"?>
<!-- Generator: Adobe Illustrator 16.2.1, SVG Export Plug-In . SVG Version: 6.00 Build 0)  -->
<!DOCTYPE svg PUBLIC "-//W3C//DTD SVG 1.0//EN" "http://www.w3.org/TR/2001/REC-SVG-20010904/DTD/svg10.dtd">
<svg version="1.0" id="Ebene_1" xmlns="http://www.w3.org/2000/svg" xmlns:xlink="http://www.w3.org/1999/xlink" x="0px" y="0px"
	 width="250px" height="90px" viewBox="0 0 250 90" enable-background="new 0 0 250 90" xml:space="preserve">
<g>
	<g>
		
			<linearGradient id="SVGID_1_" gradientUnits="userSpaceOnUse" x1="63.3433" y1="-14.4951" x2="85.4355" y2="84.8103" gradientTransform="matrix(0.9778 -0.0137 0.014 0.9999 6.7342 2.0493)">
			<stop  offset="0" style="stop-color:#DBDB00"/>
			<stop  offset="1" style="stop-color:#00963E"/>
		</linearGradient>
		<polygon fill="url(#SVGID_1_)" points="101.652,2.068 96.116,6.782 62.979,21.567 56.262,20.915 45.536,23.592 33.641,31.675 
			21.987,37.711 10.015,40.062 1.99,38.526 0,39.507 9.113,42.462 21.625,40.444 34.891,35.135 52.369,25.811 57.039,26.017 
			51.527,32.367 48.574,40.596 44.645,45.701 38.802,47.555 33.426,63.728 32.281,65.32 33.164,73.554 37.293,73.222 43.618,58.126 
			50.077,52.582 60.208,47.393 67.417,43.062 71.591,36.451 83.189,36.016 94.883,32.851 99.568,34.014 110.323,30.589 
			117.338,26.672 120.873,31.419 125.807,31.35 136.908,33.218 143.595,34.489 154.965,36.648 160.409,34.935 157.3,32.114 
			144.428,27.249 132.75,22.228 132.159,18.146 132.534,16.23 134.663,15.792 135.63,18.233 140.705,18.571 144.316,19.339 
			145.396,20.142 148.59,19.688 148.974,18.592 150.441,18.571 151.22,17.06 152.673,16.084 151.715,14.325 150.086,12.166 
			150.173,8.891 146.785,5.119 145.584,4.999 140.181,0.163 139.411,2.358 132.439,0 126.169,0.088 122.062,2.055 111.378,1.25 		
			"/>
		
			<linearGradient id="SVGID_2_" gradientUnits="userSpaceOnUse" x1="142.021" y1="5.4854" x2="146.1621" y2="24.0996" gradientTransform="matrix(0.9778 -0.0137 0.014 0.9999 6.7342 2.0493)">
			<stop  offset="0" style="stop-color:#DBDB00"/>
			<stop  offset="1" style="stop-color:#00963E"/>
		</linearGradient>
		<polygon fill="url(#SVGID_2_)" points="144.316,19.339 148.59,19.688 148.974,18.592 150.441,18.571 151.22,17.06 152.673,16.084 
			151.715,14.325 150.086,12.166 150.173,8.891 		"/>
		
			<linearGradient id="SVGID_3_" gradientUnits="userSpaceOnUse" x1="86.3721" y1="-8.209" x2="97.6662" y2="42.5587" gradientTransform="matrix(0.9778 -0.0137 0.014 0.9999 6.7342 2.0493)">
			<stop  offset="0" style="stop-color:#DBDB00"/>
			<stop  offset="1" style="stop-color:#00963E"/>
		</linearGradient>
		<polygon fill="url(#SVGID_3_)" points="132.75,22.228 122.062,2.055 111.378,1.25 101.652,2.068 96.116,6.782 62.979,21.567 
			117.338,26.672 		"/>
		<g>
			
				<linearGradient id="SVGID_4_" gradientUnits="userSpaceOnUse" x1="115.4453" y1="-17.9199" x2="132.9902" y2="60.945" gradientTransform="matrix(0.9778 -0.0137 0.014 0.9999 6.7342 2.0493)">
				<stop  offset="0" style="stop-color:#DBDB00"/>
				<stop  offset="1" style="stop-color:#00963E"/>
			</linearGradient>
			<polygon fill="url(#SVGID_4_)" points="157.3,32.114 144.428,27.249 132.75,22.228 132.159,18.146 132.534,16.23 139.411,2.358 
				122.649,1.774 96.116,6.782 117.338,26.672 120.873,31.419 125.807,31.35 136.908,33.218 143.595,34.489 154.965,36.648 
				160.409,34.935 			"/>
			
				<linearGradient id="SVGID_5_" gradientUnits="userSpaceOnUse" x1="38.9907" y1="16.6445" x2="53.8644" y2="83.5024" gradientTransform="matrix(0.9778 -0.0137 0.014 0.9999 6.7342 2.0493)">
				<stop  offset="0" style="stop-color:#DBDB00"/>
				<stop  offset="1" style="stop-color:#00963E"/>
			</linearGradient>
			<polygon fill="url(#SVGID_5_)" points="71.591,36.451 51.527,32.367 48.574,40.596 44.645,45.701 38.802,47.555 33.426,63.728 
				37.293,73.222 43.618,58.126 			"/>
		</g>
		
			<linearGradient id="SVGID_6_" gradientUnits="userSpaceOnUse" x1="113.2651" y1="-11.8428" x2="125.4673" y2="43.0062" gradientTransform="matrix(0.9778 -0.0137 0.014 0.9999 6.7342 2.0493)">
			<stop  offset="0" style="stop-color:#DBDB00"/>
			<stop  offset="1" style="stop-color:#00963E"/>
		</linearGradient>
		<polygon fill="url(#SVGID_6_)" points="132.534,16.23 122.062,2.055 116.988,1.672 117.338,26.672 120.873,31.419 		"/>
		
			<linearGradient id="SVGID_7_" gradientUnits="userSpaceOnUse" x1="35.165" y1="19.252" x2="38.7294" y2="35.2739" gradientTransform="matrix(0.9778 -0.0137 0.014 0.9999 6.7342 2.0493)">
			<stop  offset="0" style="stop-color:#DBDB00"/>
			<stop  offset="1" style="stop-color:#00963E"/>
		</linearGradient>
		<polygon fill="url(#SVGID_7_)" points="52.369,25.811 45.536,23.592 34.891,35.135 		"/>
		
			<linearGradient id="SVGID_8_" gradientUnits="userSpaceOnUse" x1="14.5796" y1="23.8252" x2="17.0092" y2="90.8121" gradientTransform="matrix(0.9778 -0.0137 0.014 0.9999 6.7342 2.0493)">
			<stop  offset="0" style="stop-color:#DBDB00"/>
			<stop  offset="1" style="stop-color:#00963E"/>
		</linearGradient>
		<polygon fill="url(#SVGID_8_)" points="33.641,31.675 21.987,37.711 10.015,40.062 21.625,40.444 		"/>
		
			<linearGradient id="SVGID_9_" gradientUnits="userSpaceOnUse" x1="-2.1528" y1="33.311" x2="0.0985" y2="43.4308" gradientTransform="matrix(0.9778 -0.0137 0.014 0.9999 6.7342 2.0493)">
			<stop  offset="0" style="stop-color:#DBDB00"/>
			<stop  offset="1" style="stop-color:#00963E"/>
		</linearGradient>
		<polygon fill="url(#SVGID_9_)" points="10.015,40.062 1.99,38.526 9.113,42.462 		"/>
		
			<linearGradient id="SVGID_10_" gradientUnits="userSpaceOnUse" x1="73.4619" y1="18.6597" x2="73.4619" y2="43.6196" gradientTransform="matrix(0.9778 -0.0137 0.014 0.9999 6.7342 2.0493)">
			<stop  offset="0" style="stop-color:#DBDB00"/>
			<stop  offset="1" style="stop-color:#00963E"/>
		</linearGradient>
		<polygon fill="url(#SVGID_10_)" points="62.979,21.567 71.591,36.451 94.883,32.851 		"/>
		
			<linearGradient id="SVGID_11_" gradientUnits="userSpaceOnUse" x1="27.4033" y1="36.3735" x2="37.4639" y2="81.5961" gradientTransform="matrix(0.9778 -0.0137 0.014 0.9999 6.7342 2.0493)">
			<stop  offset="0" style="stop-color:#DBDB00"/>
			<stop  offset="1" style="stop-color:#00963E"/>
		</linearGradient>
		<polygon fill="url(#SVGID_11_)" points="43.618,58.126 38.802,47.555 37.293,73.222 		"/>
		
			<linearGradient id="SVGID_12_" gradientUnits="userSpaceOnUse" x1="131.0259" y1="14.0806" x2="138.6176" y2="48.2056" gradientTransform="matrix(0.9778 -0.0137 0.014 0.9999 6.7342 2.0493)">
			<stop  offset="0" style="stop-color:#DBDB00"/>
			<stop  offset="1" style="stop-color:#00963E"/>
		</linearGradient>
		<polygon fill="url(#SVGID_12_)" points="117.338,26.672 120.873,31.419 125.807,31.35 136.908,33.218 143.595,34.489 
			154.965,36.648 160.409,34.935 		"/>
		
			<linearGradient id="SVGID_13_" gradientUnits="userSpaceOnUse" x1="138.1035" y1="-9.0176" x2="146.2787" y2="27.7302" gradientTransform="matrix(0.9778 -0.0137 0.014 0.9999 6.7342 2.0493)">
			<stop  offset="0" style="stop-color:#DBDB00"/>
			<stop  offset="1" style="stop-color:#00963E"/>
		</linearGradient>
		<polygon fill="url(#SVGID_13_)" points="148.974,18.592 140.183,0.162 150.086,12.166 		"/>
		
			<linearGradient id="SVGID_14_" gradientUnits="userSpaceOnUse" x1="87.4741" y1="-21.2759" x2="89.9287" y2="49.299" gradientTransform="matrix(0.9778 -0.0137 0.014 0.9999 6.7342 2.0493)">
			<stop  offset="0" style="stop-color:#DBDB00"/>
			<stop  offset="1" style="stop-color:#00963E"/>
		</linearGradient>
		<polygon fill="url(#SVGID_14_)" points="71.591,36.451 117.338,26.672 96.116,6.782 		"/>
	</g>
	<g>
		<path fill="#3A3A39" d="M111.241,70.756c-2.157,1.483-5.46,3.775-10.989,3.775c-5.797,0-8.966-3.101-8.966-8.158
			c0-0.471,0.067-1.078,0.135-1.685l1.887-14.965c0.742-6,3.708-9.842,10.719-9.842c5.124,0,8.629,2.225,10.382,3.708l0.337-1.483
			c0.27-1.146,0.606-1.686,1.82-1.686h5.393c0.809,0,1.55,0.405,1.416,1.686l-3.708,30.134c-0.135,1.213-0.741,1.752-1.887,1.752
			h-5.191c-1.011,0-1.416-0.472-1.416-1.752L111.241,70.756z M100.388,63.34c-0.067,0.337-0.067,0.607-0.067,0.944
			c0,1.416,0.741,2.562,3.371,2.562c3.303,0,6.539-2.022,8.157-3.033l1.618-13.146c-1.281-1.078-4.045-3.101-7.348-3.101
			c-3.034,0-3.91,1.685-4.18,3.505L100.388,63.34z"/>
		<path fill="#3A3A39" d="M127.689,66.373c0-0.539,0.067-1.146,0.135-1.685l1.888-14.965c0.741-6,3.64-9.842,10.652-9.842
			c5.392,0,8.898,2.359,10.651,3.91l0.337-1.685c0.27-1.214,0.539-1.686,1.752-1.686h5.191c1.214,0,1.619,0.674,1.483,1.686
			l-4.382,35.527c-0.741,5.999-5.056,9.909-15.639,9.909h-9.506c-1.079,0-1.685-0.539-1.55-1.617l0.472-3.91
			c0.135-1.214,0.81-1.753,1.956-1.753h9.505c3.977,0,5.73-1.146,6-3.641l0.674-5.662c-2.09,1.415-5.191,3.573-10.651,3.573
			C130.858,74.531,127.689,71.362,127.689,66.373z M136.858,62.733c-0.068,0.607-0.135,1.214-0.135,1.483
			c0,1.483,0.742,2.629,3.371,2.629c3.303,0,6.539-2.022,8.156-3.033l1.619-13.146c-1.349-1.078-4.113-3.101-7.349-3.101
			c-3.168,0-3.977,1.685-4.179,3.505L136.858,62.733z"/>
		<path fill="#3A3A39" d="M172.856,72.239c-0.135,1.213-0.607,1.752-1.821,1.752h-5.595c-1.213,0-1.55-0.539-1.416-1.752
			l3.708-30.134c0.135-1.146,0.606-1.686,1.82-1.686h5.596c1.213,0,1.55,0.472,1.416,1.686L172.856,72.239z M177.508,34.419
			c-0.135,1.146-0.607,1.618-1.82,1.618h-5.596c-1.213,0-1.55-0.472-1.415-1.618l0.674-5.797c0.135-1.213,0.674-1.752,1.887-1.752
			h5.596c1.213,0,1.483,0.539,1.348,1.752L177.508,34.419z"/>
		<path fill="#3A3A39" d="M200.833,70.756c-2.09,1.483-5.258,3.775-10.921,3.775c-5.865,0-8.966-3.101-8.966-8.09
			c0-0.539,0.067-1.146,0.135-1.753l1.887-14.965c0.742-6,3.708-9.842,10.719-9.842c4.854,0,8.562,2.157,10.314,3.64l1.753-14.898
			c0.135-1.213,0.675-1.752,1.888-1.752h5.595c1.214,0,1.551,0.606,1.416,1.752l-5.326,43.617c-0.135,1.213-0.742,1.752-1.888,1.752
			h-5.19c-1.214,0-1.416-0.539-1.416-1.752V70.756z M190.114,62.936c-0.067,0.54-0.135,1.011-0.135,1.348
			c0,1.416,0.809,2.562,3.371,2.562c3.304,0,6.539-2.022,8.157-3.033l1.618-13.146c-1.28-1.078-4.112-3.101-7.348-3.101
			c-3.101,0-3.91,1.685-4.18,3.505L190.114,62.936z"/>
		<path fill="#3A3A39" d="M219.236,49.79c0.741-6,5.393-9.909,15.573-9.909c8.898,0,13.684,3.371,13.684,8.696
			c0,0.404,0,0.674-0.067,1.213l-1.82,14.764c-0.742,6.067-5.326,9.978-15.505,9.978c-8.966,0-13.685-3.438-13.685-8.832
			c0-0.336,0-0.606,0.067-1.146L219.236,49.79z M239.46,51.138c0.067-0.674,0.067-0.944,0.067-1.146
			c0-2.292-2.089-3.101-5.325-3.101c-3.776,0-5.798,1.146-6.135,3.641l-1.618,12.741c-0.068,0.54-0.068,1.011-0.068,1.146
			c0,2.292,1.821,3.1,5.327,3.1c3.775,0,5.797-1.146,6.134-3.707L239.46,51.138z"/>
	</g>
	<g>
		<path fill="#3A3A39" d="M166.76,83.856c0.012-0.095,0.012-0.083,0.012-0.119c0-0.501-0.37-0.751-1.085-0.751
			c-0.764,0-1.193,0.286-1.252,0.871l-0.012,0.12c-0.012,0.107-0.012,0.143-0.012,0.191c0,0.322,0.215,0.429,0.406,0.5l1.968,0.74
			c0.787,0.298,1.228,0.835,1.228,1.551c0,0.06-0.012,0.179-0.023,0.286l-0.083,0.812c-0.107,1.002-0.847,1.944-3.03,1.944
			c-1.945,0-2.685-0.823-2.685-1.742c0-0.047,0-0.131,0.024-0.287l0.084-0.668c0.023-0.214,0.119-0.31,0.322-0.31h1.001
			c0.215,0,0.274,0.107,0.25,0.31l-0.06,0.454c-0.012,0.095-0.012,0.167-0.012,0.227c0,0.501,0.417,0.728,1.181,0.728
			c0.799,0,1.265-0.274,1.348-0.871l0.048-0.334c0.012-0.083,0.012-0.143,0.012-0.167c0-0.394-0.477-0.596-0.906-0.764l-1.658-0.656
			c-0.597-0.239-1.026-0.751-1.026-1.396c0-0.06,0.012-0.167,0.024-0.286l0.071-0.596c0.12-1.002,0.74-1.945,2.899-1.945
			c1.92,0,2.577,0.823,2.577,1.706c0,0.06,0,0.107-0.012,0.239l-0.047,0.489c-0.024,0.203-0.131,0.298-0.334,0.298h-1.002
			c-0.19,0-0.274-0.072-0.25-0.298L166.76,83.856z"/>
		<path fill="#3A3A39" d="M169.685,83.642c0.119-1.002,0.882-1.945,3.089-1.945c1.944,0,2.72,0.823,2.72,1.729
			c0,0.072,0,0.191-0.012,0.299l-0.525,4.33c-0.119,1.002-0.895,1.944-3.102,1.944c-1.945,0-2.72-0.811-2.72-1.729
			c0-0.072,0.012-0.179,0.023-0.299L169.685,83.642z M173.836,84.012c0.012-0.095,0.024-0.179,0.024-0.227
			c0-0.501-0.429-0.752-1.205-0.752c-0.752,0-1.312,0.298-1.384,0.895l-0.465,3.757c-0.012,0.095-0.024,0.179-0.024,0.227
			c0,0.501,0.43,0.752,1.205,0.752c0.811,0,1.3-0.298,1.372-0.895L173.836,84.012z"/>
		<path fill="#3A3A39" d="M181.926,81.793c0.214,0,0.298,0.071,0.274,0.286l-0.096,0.751c-0.023,0.215-0.131,0.298-0.333,0.298
			h-3.042l-0.238,1.933h2.839c0.203,0,0.286,0.071,0.262,0.286l-0.095,0.764c-0.024,0.214-0.131,0.298-0.334,0.298h-2.839
			l-0.394,3.185c-0.024,0.215-0.107,0.311-0.322,0.311h-1.038c-0.203,0-0.287-0.096-0.262-0.311l0.93-7.491
			c0.024-0.215,0.119-0.31,0.322-0.31H181.926z"/>
		<path fill="#3A3A39" d="M188.046,81.793c0.215,0,0.298,0.071,0.274,0.286l-0.096,0.751c-0.023,0.215-0.119,0.298-0.322,0.298
			h-1.706l-0.799,6.465c-0.024,0.215-0.096,0.311-0.311,0.311h-1.038c-0.215,0-0.286-0.096-0.263-0.311l0.799-6.465h-1.694
			c-0.215,0-0.298-0.083-0.274-0.298l0.096-0.751c0.023-0.215,0.119-0.286,0.334-0.286H188.046z"/>
		<path fill="#3A3A39" d="M194.871,86.147c0.036,0.322,0.06,0.799,0.06,1.193c0.083-0.394,0.227-0.859,0.346-1.181l1.515-4.068
			c0.071-0.191,0.191-0.298,0.394-0.298h0.918c0.215,0,0.25,0.107,0.179,0.298l-2.815,7.516c-0.072,0.203-0.191,0.298-0.394,0.298
			h-1.015c-0.179,0-0.286-0.107-0.31-0.298l-0.525-4.151c-0.036-0.274-0.048-0.68-0.036-1.11c-0.095,0.43-0.191,0.824-0.298,1.11
			l-1.563,4.151c-0.071,0.203-0.191,0.298-0.406,0.298h-1.014c-0.179,0-0.287-0.107-0.31-0.298l-0.967-7.516
			c-0.023-0.191,0.048-0.298,0.263-0.298h1.05c0.203,0,0.286,0.107,0.31,0.298l0.513,4.068c0.036,0.311,0.048,0.692,0.06,1.002
			c0.084-0.298,0.215-0.692,0.334-1.002l1.527-4.068c0.072-0.191,0.179-0.298,0.394-0.298h0.966c0.214,0,0.286,0.107,0.31,0.298
			L194.871,86.147z"/>
		<path fill="#3A3A39" d="M201.852,81.793c0.203,0,0.287,0.095,0.322,0.298l1.312,7.516c0.036,0.191-0.036,0.298-0.25,0.298h-1.05
			c-0.215,0-0.286-0.107-0.322-0.298l-0.239-1.456h-2.219l-0.596,1.456c-0.072,0.191-0.167,0.298-0.381,0.298h-0.99
			c-0.203,0-0.274-0.107-0.191-0.298l3.149-7.516c0.084-0.203,0.203-0.298,0.406-0.298H201.852z M201.208,85.551
			c-0.107-0.621-0.096-2.183-0.096-2.183c-0.012,0.047-0.394,1.646-0.62,2.171l-0.573,1.336h1.515L201.208,85.551z"/>
		<path fill="#3A3A39" d="M206.458,86.815l-0.334,2.779c-0.023,0.215-0.107,0.311-0.322,0.311h-1.038
			c-0.167,0-0.299-0.06-0.263-0.311l0.931-7.491c0.023-0.215,0.119-0.31,0.322-0.31h2.422c1.956,0,2.731,0.847,2.731,1.825
			c0,0.072,0,0.179-0.012,0.275l-0.119,1.038c-0.083,0.716-0.489,1.372-1.503,1.682l0.895,2.982c0.06,0.191-0.108,0.311-0.311,0.311
			h-1.026c-0.19,0-0.227-0.144-0.274-0.311l-0.834-2.779h-0.024H206.458z M206.923,83.129l-0.299,2.35h1.193
			c0.823,0,1.312-0.239,1.396-0.835l0.071-0.489c0.012-0.096,0.012-0.167,0.012-0.215c0-0.525-0.358-0.811-1.157-0.811H206.923z"/>
		<path fill="#3A3A39" d="M211.923,89.905c-0.203,0-0.287-0.096-0.263-0.311l0.931-7.491c0.023-0.215,0.119-0.31,0.322-0.31h4.08
			c0.215,0,0.298,0.071,0.274,0.286l-0.095,0.751c-0.024,0.215-0.131,0.298-0.334,0.298h-2.755l-0.238,1.933h2.565
			c0.203,0,0.274,0.071,0.25,0.286l-0.083,0.715c-0.024,0.203-0.12,0.287-0.334,0.287h-2.553l-0.286,2.219h2.887
			c0.215,0,0.31,0.071,0.274,0.287l-0.108,0.751c-0.035,0.214-0.107,0.298-0.322,0.298H211.923z"/>
	</g>
</g>
</svg>
